<mxfile host="app.diagrams.net" modified="2023-05-01T16:38:52.601Z" agent="Mozilla/5.0 (Windows NT 10.0; Win64; x64) AppleWebKit/537.36 (KHTML, like Gecko) Chrome/112.0.0.0 Safari/537.36" etag="T07G1PnZzCgPVAFKE6Xj" version="21.2.3" type="github">
  <diagram name="Page-1" id="2cc2dc42-3aac-f2a9-1cec-7a8b7cbee084">
    <mxGraphModel dx="1221" dy="743" grid="1" gridSize="10" guides="1" tooltips="1" connect="1" arrows="1" fold="1" page="1" pageScale="1" pageWidth="1100" pageHeight="850" background="none" math="0" shadow="0">
      <root>
        <mxCell id="0" />
        <mxCell id="1" parent="0" />
        <mxCell id="7026571954dc6520-1" value="" style="strokeWidth=1;shadow=0;dashed=0;align=center;html=1;shape=mxgraph.mockup.containers.browserWindow;rSize=0;strokeColor=#666666;mainText=,;recursiveResize=0;rounded=0;labelBackgroundColor=none;fontFamily=Verdana;fontSize=12" parent="1" vertex="1">
          <mxGeometry x="30" y="20" width="1050" height="820" as="geometry" />
        </mxCell>
        <mxCell id="7026571954dc6520-2" value="Joined event" style="strokeWidth=1;shadow=0;dashed=0;align=center;html=1;shape=mxgraph.mockup.containers.anchor;fontSize=17;fontColor=#666666;align=left;" parent="7026571954dc6520-1" vertex="1">
          <mxGeometry x="60" y="12" width="110" height="26" as="geometry" />
        </mxCell>
        <mxCell id="7026571954dc6520-3" value="https://www.w3out.com/events/?eventid=1" style="strokeWidth=1;shadow=0;dashed=0;align=center;html=1;shape=mxgraph.mockup.containers.anchor;rSize=0;fontSize=17;fontColor=#666666;align=left;" parent="7026571954dc6520-1" vertex="1">
          <mxGeometry x="130" y="60" width="250" height="26" as="geometry" />
        </mxCell>
        <mxCell id="PswUvU7GoWv7nSjoJi2_-21" value="Event name" style="text;html=1;align=left;verticalAlign=middle;resizable=0;points=[];autosize=1;strokeColor=none;fillColor=none;" parent="7026571954dc6520-1" vertex="1">
          <mxGeometry x="166.37" y="190" width="90" height="30" as="geometry" />
        </mxCell>
        <mxCell id="PswUvU7GoWv7nSjoJi2_-22" value="Location" style="text;html=1;align=left;verticalAlign=middle;resizable=0;points=[];autosize=1;strokeColor=none;fillColor=none;" parent="7026571954dc6520-1" vertex="1">
          <mxGeometry x="166.37" y="220" width="70" height="30" as="geometry" />
        </mxCell>
        <mxCell id="PswUvU7GoWv7nSjoJi2_-23" value="Date" style="text;html=1;align=left;verticalAlign=middle;resizable=0;points=[];autosize=1;strokeColor=none;fillColor=none;" parent="7026571954dc6520-1" vertex="1">
          <mxGeometry x="166.37" y="250" width="50" height="30" as="geometry" />
        </mxCell>
        <mxCell id="4rItziBb_c25DRYMOsrU-1" value="" style="aspect=fixed;html=1;points=[];align=center;image;fontSize=12;image=img/lib/azure2/general/Image.svg;" parent="7026571954dc6520-1" vertex="1">
          <mxGeometry x="25.45" y="180" width="130.92" height="90" as="geometry" />
        </mxCell>
        <mxCell id="4rItziBb_c25DRYMOsrU-3" value="" style="aspect=fixed;html=1;points=[];align=center;image;fontSize=12;image=img/lib/azure2/general/Image.svg;" parent="7026571954dc6520-1" vertex="1">
          <mxGeometry x="25.450000000000003" y="280" width="58.19" height="40" as="geometry" />
        </mxCell>
        <mxCell id="4rItziBb_c25DRYMOsrU-15" value="" style="rounded=1;whiteSpace=wrap;html=1;" parent="7026571954dc6520-1" vertex="1">
          <mxGeometry x="40" y="400" width="945" height="370" as="geometry" />
        </mxCell>
        <mxCell id="4rItziBb_c25DRYMOsrU-19" value="Event long description" style="rounded=0;whiteSpace=wrap;html=1;" parent="7026571954dc6520-1" vertex="1">
          <mxGeometry x="310" y="180" width="440" height="170" as="geometry" />
        </mxCell>
        <mxCell id="4rItziBb_c25DRYMOsrU-20" value="" style="verticalLabelPosition=bottom;shadow=0;dashed=0;align=center;html=1;verticalAlign=top;strokeWidth=1;shape=mxgraph.mockup.forms.horSlider;strokeColor=#999999;sliderStyle=basic;sliderPos=69.032;handleStyle=circle;fillColor2=#ddeeff;direction=north;" parent="7026571954dc6520-1" vertex="1">
          <mxGeometry x="710" y="180" width="30" height="170" as="geometry" />
        </mxCell>
        <object placeholders="1" c4Name="Organizer name" c4Type="Organization" c4Description="Description of organization objective." label="&lt;font style=&quot;font-size: 16px&quot;&gt;&lt;b&gt;%c4Name%&lt;/b&gt;&lt;/font&gt;&lt;div&gt;[%c4Type%]&lt;/div&gt;&lt;br&gt;&lt;div&gt;&lt;font style=&quot;font-size: 11px&quot;&gt;&lt;font color=&quot;#cccccc&quot;&gt;%c4Description%&lt;/font&gt;&lt;/div&gt;" id="4rItziBb_c25DRYMOsrU-23">
          <mxCell style="html=1;fontSize=11;dashed=0;whiteSpace=wrap;fillColor=#6C6477;strokeColor=#4D4D4D;fontColor=#ffffff;shape=mxgraph.c4.person2;align=center;metaEdit=1;points=[[0.5,0,0],[1,0.5,0],[1,0.75,0],[0.75,1,0],[0.5,1,0],[0.25,1,0],[0,0.75,0],[0,0.5,0]];resizable=0;" parent="7026571954dc6520-1" vertex="1">
            <mxGeometry x="101.37" y="460" width="200" height="180" as="geometry" />
          </mxCell>
        </object>
        <mxCell id="4rItziBb_c25DRYMOsrU-26" value="" style="rounded=0;whiteSpace=wrap;html=1;" parent="7026571954dc6520-1" vertex="1">
          <mxGeometry x="793" y="176" width="200" height="204" as="geometry" />
        </mxCell>
        <mxCell id="4rItziBb_c25DRYMOsrU-25" value="" style="verticalLabelPosition=bottom;shadow=0;dashed=0;align=center;html=1;verticalAlign=top;strokeWidth=1;shape=mxgraph.mockup.misc.map;" parent="7026571954dc6520-1" vertex="1">
          <mxGeometry x="810" y="180" width="170" height="170" as="geometry" />
        </mxCell>
        <mxCell id="4rItziBb_c25DRYMOsrU-27" value="Location" style="text;html=1;align=center;verticalAlign=middle;resizable=0;points=[];autosize=1;strokeColor=none;fillColor=none;" parent="7026571954dc6520-1" vertex="1">
          <mxGeometry x="810" y="350" width="70" height="30" as="geometry" />
        </mxCell>
        <mxCell id="4rItziBb_c25DRYMOsrU-28" value="" style="html=1;verticalLabelPosition=bottom;align=center;labelBackgroundColor=#ffffff;verticalAlign=top;strokeWidth=2;strokeColor=#0080F0;shadow=0;dashed=0;shape=mxgraph.ios7.icons.location;" parent="7026571954dc6520-1" vertex="1">
          <mxGeometry x="881" y="230" width="24" height="30" as="geometry" />
        </mxCell>
        <mxCell id="4rItziBb_c25DRYMOsrU-29" value="&lt;font style=&quot;font-size: 23px;&quot;&gt;Organization&lt;/font&gt;" style="text;html=1;align=center;verticalAlign=middle;resizable=0;points=[];autosize=1;strokeColor=none;fillColor=none;" parent="7026571954dc6520-1" vertex="1">
          <mxGeometry x="121.37" y="410" width="150" height="40" as="geometry" />
        </mxCell>
        <mxCell id="4rItziBb_c25DRYMOsrU-32" value="Leave" style="rounded=1;html=1;shadow=0;dashed=0;whiteSpace=wrap;fontSize=10;fillColor=#666666;align=center;strokeColor=#4D4D4D;fontColor=#ffffff;" parent="7026571954dc6520-1" vertex="1">
          <mxGeometry x="450" y="363.12" width="105.5" height="16.88" as="geometry" />
        </mxCell>
        <mxCell id="4rItziBb_c25DRYMOsrU-33" value="Event website" style="rounded=1;html=1;shadow=0;dashed=0;whiteSpace=wrap;fontSize=10;fillColor=#666666;align=center;strokeColor=#4D4D4D;fontColor=#ffffff;" parent="7026571954dc6520-1" vertex="1">
          <mxGeometry x="590" y="363.12" width="105.5" height="16.88" as="geometry" />
        </mxCell>
        <mxCell id="4rItziBb_c25DRYMOsrU-34" value="Concacts" style="html=1;strokeColor=none;fillColor=#0079D6;labelPosition=center;verticalLabelPosition=middle;verticalAlign=top;align=center;fontSize=12;outlineConnect=0;spacingTop=-6;fontColor=#FFFFFF;sketch=0;shape=mxgraph.sitemap.chat;" parent="7026571954dc6520-1" vertex="1">
          <mxGeometry x="116.37" y="661" width="170" height="90" as="geometry" />
        </mxCell>
        <mxCell id="4rItziBb_c25DRYMOsrU-35" value="Report problem" style="html=1;shadow=0;dashed=0;shape=mxgraph.bootstrap.rrect;rSize=5;strokeColor=none;strokeWidth=1;fillColor=#DB2843;fontColor=#FFFFFF;whiteSpace=wrap;align=center;verticalAlign=middle;spacingLeft=0;fontStyle=0;fontSize=16;spacing=5;" parent="7026571954dc6520-1" vertex="1">
          <mxGeometry x="790" y="686" width="80" height="40" as="geometry" />
        </mxCell>
        <mxCell id="rk1dpR8E0q6zi79prH13-1" value="" style="endArrow=none;html=1;rounded=0;exitX=0.298;exitY=0.999;exitDx=0;exitDy=0;exitPerimeter=0;entryX=0.297;entryY=0.005;entryDx=0;entryDy=0;entryPerimeter=0;" edge="1" parent="7026571954dc6520-1" source="4rItziBb_c25DRYMOsrU-15" target="4rItziBb_c25DRYMOsrU-15">
          <mxGeometry width="50" height="50" relative="1" as="geometry">
            <mxPoint x="490" y="480" as="sourcePoint" />
            <mxPoint x="540" y="430" as="targetPoint" />
          </mxGeometry>
        </mxCell>
        <mxCell id="rk1dpR8E0q6zi79prH13-2" value="&lt;font style=&quot;font-size: 23px;&quot;&gt;Needed figures&lt;/font&gt;" style="text;html=1;align=center;verticalAlign=middle;resizable=0;points=[];autosize=1;strokeColor=none;fillColor=none;" vertex="1" parent="7026571954dc6520-1">
          <mxGeometry x="325" y="410" width="180" height="40" as="geometry" />
        </mxCell>
        <mxCell id="rk1dpR8E0q6zi79prH13-3" value="Join" style="rounded=1;html=1;shadow=0;dashed=0;whiteSpace=wrap;fontSize=10;fillColor=#99CCFF;align=center;strokeColor=#4D4D4D;fontColor=#ffffff;" vertex="1" parent="7026571954dc6520-1">
          <mxGeometry x="310" y="363.12" width="105.5" height="16.88" as="geometry" />
        </mxCell>
        <mxCell id="4rItziBb_c25DRYMOsrU-4" value="" style="aspect=fixed;html=1;points=[];align=center;image;fontSize=12;image=img/lib/azure2/general/Image.svg;" parent="1" vertex="1">
          <mxGeometry x="127.45" y="300" width="58.19" height="40" as="geometry" />
        </mxCell>
        <mxCell id="rk1dpR8E0q6zi79prH13-4" value="" style="shape=image;html=1;verticalAlign=top;verticalLabelPosition=bottom;labelBackgroundColor=#ffffff;imageAspect=0;aspect=fixed;image=https://cdn4.iconfinder.com/data/icons/evil-icons-user-interface/64/menu-128.png" vertex="1" parent="1">
          <mxGeometry x="30" y="130" width="40" height="40" as="geometry" />
        </mxCell>
        <mxCell id="rk1dpR8E0q6zi79prH13-5" value="" style="sketch=0;pointerEvents=1;shadow=0;dashed=0;html=1;strokeColor=none;fillColor=#505050;labelPosition=center;verticalLabelPosition=bottom;verticalAlign=top;outlineConnect=0;align=center;shape=mxgraph.office.concepts.home;" vertex="1" parent="1">
          <mxGeometry x="70" y="135" width="40" height="30" as="geometry" />
        </mxCell>
        <mxCell id="rk1dpR8E0q6zi79prH13-6" value="" style="swimlane;startSize=0;" vertex="1" parent="1">
          <mxGeometry x="30" y="130" width="40" height="40" as="geometry" />
        </mxCell>
        <mxCell id="rk1dpR8E0q6zi79prH13-7" value="" style="swimlane;startSize=0;" vertex="1" parent="1">
          <mxGeometry x="70" y="130" width="390" height="40" as="geometry" />
        </mxCell>
        <mxCell id="rk1dpR8E0q6zi79prH13-8" value="&lt;font style=&quot;font-size: 24px;&quot;&gt;VOLUNTEERING EVENTS&lt;/font&gt;" style="text;html=1;align=center;verticalAlign=middle;resizable=0;points=[];autosize=1;strokeColor=none;fillColor=none;" vertex="1" parent="rk1dpR8E0q6zi79prH13-7">
          <mxGeometry x="80" width="320" height="40" as="geometry" />
        </mxCell>
        <mxCell id="rk1dpR8E0q6zi79prH13-9" value="&lt;font style=&quot;font-size: 24px;&quot; color=&quot;#ff0055&quot;&gt;&amp;gt;&lt;/font&gt;" style="text;html=1;align=center;verticalAlign=middle;resizable=0;points=[];autosize=1;strokeColor=none;fillColor=none;" vertex="1" parent="rk1dpR8E0q6zi79prH13-7">
          <mxGeometry x="40" width="40" height="40" as="geometry" />
        </mxCell>
        <mxCell id="rk1dpR8E0q6zi79prH13-10" value="" style="swimlane;startSize=0;" vertex="1" parent="1">
          <mxGeometry x="750" y="130" width="330" height="40" as="geometry">
            <mxRectangle x="750" y="130" width="50" height="40" as="alternateBounds" />
          </mxGeometry>
        </mxCell>
        <mxCell id="rk1dpR8E0q6zi79prH13-11" value="&lt;font style=&quot;font-size: 24px;&quot;&gt;ACCOUNT&lt;/font&gt;" style="text;html=1;align=center;verticalAlign=middle;resizable=0;points=[];autosize=1;strokeColor=none;fillColor=none;" vertex="1" parent="rk1dpR8E0q6zi79prH13-10">
          <mxGeometry x="8" width="140" height="40" as="geometry" />
        </mxCell>
        <mxCell id="rk1dpR8E0q6zi79prH13-12" value="" style="swimlane;startSize=0;" vertex="1" parent="1">
          <mxGeometry x="70" y="130" width="40" height="40" as="geometry" />
        </mxCell>
        <mxCell id="rk1dpR8E0q6zi79prH13-13" value="" style="swimlane;startSize=0;" vertex="1" parent="1">
          <mxGeometry x="460" y="130" width="290" height="40" as="geometry" />
        </mxCell>
        <mxCell id="rk1dpR8E0q6zi79prH13-14" value="&lt;span style=&quot;font-size: 24px;&quot;&gt;ORGANIZATIONS&lt;/span&gt;" style="text;html=1;align=center;verticalAlign=middle;resizable=0;points=[];autosize=1;strokeColor=none;fillColor=none;" vertex="1" parent="rk1dpR8E0q6zi79prH13-13">
          <mxGeometry x="33" width="220" height="40" as="geometry" />
        </mxCell>
      </root>
    </mxGraphModel>
  </diagram>
</mxfile>
